<svg xmlns="http://www.w3.org/2000/svg" viewBox="160 -10 605 568" width="605" height="568" style="background:#fff">
<defs><marker id="arrow" viewBox="0 0 10 10" refX="9" refY="5" markerWidth="6" markerHeight="6" orient="auto-start-reverse"><path d="M 0 0 L 10 5 L 0 10 z" fill="#868e96"/></marker></defs>
<style>text { font-family: "Segoe UI", Helvetica, Arial, sans-serif; }</style>
<text x="200" y="34" font-size="24" fill="#1e1e1e">Temporal Platform — Generic Job Framework</text>
<rect x="250" y="60" width="250" height="45" rx="4" fill="#d0bfff" stroke="#7048e8" stroke-width="2"/>
<text x="290" y="80" font-size="12" fill="#7048e8">Temporal Server</text>
<text x="290" y="96" font-size="12" fill="#7048e8">(self-hosted or Cloud)</text>
<rect x="530" y="60" width="200" height="45" rx="4" fill="#eebefa" stroke="#9c36b5" stroke-width="2"/>
<text x="545" y="78" font-size="10" fill="#9c36b5">Temporal Web Dashboard</text>
<text x="545" y="92" font-size="10" fill="#9c36b5">View / Search / Retry / Cancel</text>
<line x1="375" y1="105" x2="375" y2="130" stroke="#7048e8" stroke-width="2" marker-end="url(#arrow)"/>
<rect x="250" y="135" width="250" height="35" rx="4" fill="#d0bfff" stroke="#7048e8" stroke-width="1"/>
<text x="280" y="153" font-size="11" fill="#7048e8">Worker Pool (Java 21 Virtual Threads)</text>
<line x1="310" y1="170" x2="250" y2="200" stroke="#1971c2" stroke-width="1" marker-end="url(#arrow)"/>
<line x1="375" y1="170" x2="375" y2="200" stroke="#2f9e44" stroke-width="1" marker-end="url(#arrow)"/>
<line x1="440" y1="170" x2="500" y2="200" stroke="#e8590c" stroke-width="1" marker-end="url(#arrow)"/>
<rect x="180" y="205" width="140" height="30" rx="4" fill="#d0ebff" stroke="#1971c2" stroke-width="1"/>
<text x="190" y="222" font-size="10" fill="#1971c2">market-data-sync</text>
<rect x="330" y="205" width="140" height="30" rx="4" fill="#d3f9d8" stroke="#2f9e44" stroke-width="1"/>
<text x="340" y="222" font-size="10" fill="#2f9e44">market-data-ops</text>
<rect x="480" y="205" width="140" height="30" rx="4" fill="#ffe8cc" stroke="#e8590c" stroke-width="1"/>
<text x="490" y="222" font-size="10" fill="#e8590c">market-data-recon</text>
<rect x="180" y="260" width="300" height="25" rx="4" fill="#d0ebff" stroke="#1971c2" stroke-width="1"/>
<text x="185" y="275" font-size="10" fill="#1971c2">Instrument Master Sync — Daily 6:00 PM</text>
<rect x="180" y="290" width="300" height="25" rx="4" fill="#d0ebff" stroke="#1971c2" stroke-width="1"/>
<text x="185" y="305" font-size="10" fill="#1971c2">Corporate Action — Daily 8:00 PM + events</text>
<rect x="180" y="320" width="300" height="25" rx="4" fill="#d0ebff" stroke="#1971c2" stroke-width="1"/>
<text x="185" y="335" font-size="10" fill="#1971c2">NAV Update — Daily 11:00 PM</text>
<rect x="180" y="350" width="300" height="25" rx="4" fill="#d3f9d8" stroke="#2f9e44" stroke-width="1"/>
<text x="185" y="365" font-size="10" fill="#2f9e44">Pre-Market Data Loading — Daily 7:35 AM</text>
<rect x="180" y="380" width="300" height="25" rx="4" fill="#d3f9d8" stroke="#2f9e44" stroke-width="1"/>
<text x="185" y="395" font-size="10" fill="#2f9e44">Candle Archival — Weekly</text>
<rect x="180" y="410" width="300" height="25" rx="4" fill="#ffe8cc" stroke="#e8590c" stroke-width="1"/>
<text x="185" y="425" font-size="10" fill="#e8590c">EOD Reconciliation — Daily post-close</text>
<rect x="180" y="440" width="300" height="25" rx="4" fill="#ffe8cc" stroke="#e8590c" stroke-width="1"/>
<text x="185" y="455" font-size="10" fill="#e8590c">MongoDB Migration — One-time</text>
<rect x="180" y="480" width="450" height="50" rx="4" fill="#fff9db" stroke="#f08c00" stroke-width="2"/>
<text x="190" y="498" font-size="10" fill="#f08c00">Any team can create new workflows:</text>
<text x="190" y="512" font-size="10" fill="#f08c00">1. Define @WorkflowInterface  2. Implement  3. Register worker  4. Schedule via cron or trigger ad-hoc</text>
</svg>