<?xml version="1.0" encoding="UTF-8"?>
<svg xmlns="http://www.w3.org/2000/svg" viewBox="-20 -40 1180 1110" width="1180" height="1110">
  <defs>
    <marker id="ah-1565c0" markerWidth="12" markerHeight="9" refX="11" refY="4.5" orient="auto" markerUnits="userSpaceOnUse"><polygon points="0 0, 12 4.5, 0 9" fill="#1565c0"/></marker>
    <marker id="ahs-1565c0" markerWidth="12" markerHeight="9" refX="1" refY="4.5" orient="auto" markerUnits="userSpaceOnUse"><polygon points="12 0, 0 4.5, 12 9" fill="#1565c0"/></marker>
    <marker id="ah-2e7d32" markerWidth="12" markerHeight="9" refX="11" refY="4.5" orient="auto" markerUnits="userSpaceOnUse"><polygon points="0 0, 12 4.5, 0 9" fill="#2e7d32"/></marker>
    <marker id="ahs-2e7d32" markerWidth="12" markerHeight="9" refX="1" refY="4.5" orient="auto" markerUnits="userSpaceOnUse"><polygon points="12 0, 0 4.5, 12 9" fill="#2e7d32"/></marker>
    <marker id="ah-e65100" markerWidth="12" markerHeight="9" refX="11" refY="4.5" orient="auto" markerUnits="userSpaceOnUse"><polygon points="0 0, 12 4.5, 0 9" fill="#e65100"/></marker>
    <marker id="ahs-e65100" markerWidth="12" markerHeight="9" refX="1" refY="4.5" orient="auto" markerUnits="userSpaceOnUse"><polygon points="12 0, 0 4.5, 12 9" fill="#e65100"/></marker>
  </defs>
  <rect x="-20" y="-40" width="1180" height="1110" fill="white"/>
  <rect x="110" y="10" width="920" height="34" rx="3.4000000000000004" ry="3.4000000000000004" fill="none" stroke="transparent" stroke-width="1"/>
  <rect x="110" y="46" width="920" height="20" rx="2" ry="2" fill="none" stroke="transparent" stroke-width="1"/>
  <rect x="30" y="80" width="440" height="820" rx="8" ry="8" fill="#fff3e0" stroke="#e65100" stroke-width="2"/>
  <rect x="30" y="80" width="440" height="34" rx="0" ry="0" fill="#ffe0b2" stroke="#e65100" stroke-width="2"/>
  <rect x="38" y="116" width="424" height="20" rx="2" ry="2" fill="none" stroke="transparent" stroke-width="1"/>
  <rect x="38" y="140" width="64" height="28" rx="2.8000000000000003" ry="2.8000000000000003" fill="#ffe0b2" stroke="#e65100" stroke-width="1"/>
  <rect x="106" y="140" width="356" height="28" rx="2.8000000000000003" ry="2.8000000000000003" fill="#ffecb3" stroke="#e65100" stroke-width="1"/>
  <rect x="38" y="172" width="64" height="28" rx="2.8000000000000003" ry="2.8000000000000003" fill="#ffe0b2" stroke="#e65100" stroke-width="1"/>
  <rect x="106" y="172" width="356" height="28" rx="2.8000000000000003" ry="2.8000000000000003" fill="#ffecb3" stroke="#e65100" stroke-width="1"/>
  <rect x="38" y="204" width="64" height="28" rx="2.8000000000000003" ry="2.8000000000000003" fill="#ffe0b2" stroke="#e65100" stroke-width="1"/>
  <rect x="106" y="204" width="356" height="28" rx="2.8000000000000003" ry="2.8000000000000003" fill="#ffecb3" stroke="#e65100" stroke-width="1"/>
  <rect x="38" y="236" width="64" height="28" rx="2.8000000000000003" ry="2.8000000000000003" fill="#ffe0b2" stroke="#e65100" stroke-width="1"/>
  <rect x="106" y="236" width="356" height="28" rx="2.8000000000000003" ry="2.8000000000000003" fill="#ffecb3" stroke="#e65100" stroke-width="1"/>
  <rect x="38" y="268" width="64" height="28" rx="2.8000000000000003" ry="2.8000000000000003" fill="#ffe0b2" stroke="#e65100" stroke-width="1"/>
  <rect x="106" y="268" width="356" height="28" rx="2.8000000000000003" ry="2.8000000000000003" fill="#ffecb3" stroke="#e65100" stroke-width="1"/>
  <rect x="38" y="300" width="64" height="28" rx="2.8000000000000003" ry="2.8000000000000003" fill="#ffe0b2" stroke="#e65100" stroke-width="1"/>
  <rect x="106" y="300" width="356" height="28" rx="2.8000000000000003" ry="2.8000000000000003" fill="#ffecb3" stroke="#e65100" stroke-width="1"/>
  <rect x="38" y="332" width="64" height="28" rx="2.8000000000000003" ry="2.8000000000000003" fill="#ffe0b2" stroke="#e65100" stroke-width="1"/>
  <rect x="106" y="332" width="356" height="28" rx="2.8000000000000003" ry="2.8000000000000003" fill="#ffecb3" stroke="#e65100" stroke-width="1"/>
  <rect x="38" y="364" width="64" height="28" rx="2.8000000000000003" ry="2.8000000000000003" fill="#ffe0b2" stroke="#e65100" stroke-width="1"/>
  <rect x="106" y="364" width="356" height="28" rx="2.8000000000000003" ry="2.8000000000000003" fill="#ffecb3" stroke="#e65100" stroke-width="1"/>
  <rect x="38" y="396" width="64" height="28" rx="2.8000000000000003" ry="2.8000000000000003" fill="#ffe0b2" stroke="#e65100" stroke-width="1"/>
  <rect x="106" y="396" width="356" height="28" rx="2.8000000000000003" ry="2.8000000000000003" fill="#ffecb3" stroke="#e65100" stroke-width="1"/>
  <rect x="38" y="428" width="64" height="28" rx="2.8000000000000003" ry="2.8000000000000003" fill="#ffe0b2" stroke="#e65100" stroke-width="1"/>
  <rect x="106" y="428" width="356" height="28" rx="2.8000000000000003" ry="2.8000000000000003" fill="#ffecb3" stroke="#e65100" stroke-width="1"/>
  <rect x="38" y="460" width="64" height="28" rx="2.8000000000000003" ry="2.8000000000000003" fill="#ffe0b2" stroke="#e65100" stroke-width="1"/>
  <rect x="106" y="460" width="356" height="28" rx="2.8000000000000003" ry="2.8000000000000003" fill="#ffecb3" stroke="#e65100" stroke-width="1"/>
  <rect x="38" y="492" width="64" height="28" rx="2.8000000000000003" ry="2.8000000000000003" fill="#ffe0b2" stroke="#e65100" stroke-width="1"/>
  <rect x="106" y="492" width="396" height="28" rx="2.8000000000000003" ry="2.8000000000000003" fill="#ffecb3" stroke="#e65100" stroke-width="1"/>
  <rect x="38" y="524" width="64" height="28" rx="2.8000000000000003" ry="2.8000000000000003" fill="#ffe0b2" stroke="#e65100" stroke-width="1"/>
  <rect x="106" y="524" width="356" height="28" rx="2.8000000000000003" ry="2.8000000000000003" fill="#ffecb3" stroke="#e65100" stroke-width="1"/>
  <rect x="38" y="556" width="64" height="28" rx="2.8000000000000003" ry="2.8000000000000003" fill="#ffe0b2" stroke="#e65100" stroke-width="1"/>
  <rect x="106" y="556" width="356" height="28" rx="2.8000000000000003" ry="2.8000000000000003" fill="#ffecb3" stroke="#e65100" stroke-width="1"/>
  <rect x="38" y="588" width="64" height="28" rx="2.8000000000000003" ry="2.8000000000000003" fill="#ffe0b2" stroke="#e65100" stroke-width="1"/>
  <rect x="106" y="588" width="356" height="28" rx="2.8000000000000003" ry="2.8000000000000003" fill="#ffecb3" stroke="#e65100" stroke-width="1"/>
  <rect x="38" y="620" width="64" height="28" rx="2.8000000000000003" ry="2.8000000000000003" fill="#ffe0b2" stroke="#e65100" stroke-width="1"/>
  <rect x="106" y="620" width="356" height="28" rx="2.8000000000000003" ry="2.8000000000000003" fill="#ffecb3" stroke="#e65100" stroke-width="1"/>
  <rect x="38" y="652" width="64" height="28" rx="2.8000000000000003" ry="2.8000000000000003" fill="#ffe0b2" stroke="#e65100" stroke-width="1"/>
  <rect x="106" y="652" width="356" height="28" rx="2.8000000000000003" ry="2.8000000000000003" fill="#ffecb3" stroke="#e65100" stroke-width="1"/>
  <rect x="38" y="684" width="64" height="28" rx="2.8000000000000003" ry="2.8000000000000003" fill="#ffe0b2" stroke="#e65100" stroke-width="1"/>
  <rect x="106" y="684" width="356" height="28" rx="2.8000000000000003" ry="2.8000000000000003" fill="#ffecb3" stroke="#e65100" stroke-width="1"/>
  <rect x="38" y="716" width="64" height="28" rx="2.8000000000000003" ry="2.8000000000000003" fill="#ffe0b2" stroke="#e65100" stroke-width="1"/>
  <rect x="106" y="716" width="356" height="28" rx="2.8000000000000003" ry="2.8000000000000003" fill="#ffecb3" stroke="#e65100" stroke-width="1"/>
  <rect x="38" y="748" width="64" height="28" rx="2.8000000000000003" ry="2.8000000000000003" fill="#ffe0b2" stroke="#e65100" stroke-width="1"/>
  <rect x="106" y="748" width="356" height="28" rx="2.8000000000000003" ry="2.8000000000000003" fill="#ffecb3" stroke="#e65100" stroke-width="1"/>
  <rect x="38" y="780" width="64" height="28" rx="2.8000000000000003" ry="2.8000000000000003" fill="#ffe0b2" stroke="#e65100" stroke-width="1"/>
  <rect x="106" y="780" width="356" height="28" rx="2.8000000000000003" ry="2.8000000000000003" fill="#ffecb3" stroke="#e65100" stroke-width="1"/>
  <rect x="38" y="812" width="64" height="28" rx="2.8000000000000003" ry="2.8000000000000003" fill="#ffe0b2" stroke="#e65100" stroke-width="1"/>
  <rect x="106" y="812" width="356" height="28" rx="2.8000000000000003" ry="2.8000000000000003" fill="#ffecb3" stroke="#e65100" stroke-width="1"/>
  <rect x="640" y="80" width="440" height="270" rx="8" ry="8" fill="#dbeafe" stroke="#1565c0" stroke-width="2"/>
  <rect x="640" y="80" width="440" height="34" rx="0" ry="0" fill="#bbdefb" stroke="#1565c0" stroke-width="2"/>
  <rect x="648" y="116" width="424" height="20" rx="2" ry="2" fill="none" stroke="transparent" stroke-width="1"/>
  <rect x="650" y="140" width="420" height="30" rx="3" ry="3" fill="#bbdefb" stroke="#1565c0" stroke-width="1"/>
  <rect x="650" y="174" width="420" height="30" rx="3" ry="3" fill="#bbdefb" stroke="#1565c0" stroke-width="1"/>
  <rect x="650" y="208" width="420" height="30" rx="3" ry="3" fill="#bbdefb" stroke="#1565c0" stroke-width="1"/>
  <rect x="650" y="242" width="420" height="30" rx="3" ry="3" fill="#bbdefb" stroke="#1565c0" stroke-width="1"/>
  <rect x="650" y="276" width="420" height="30" rx="3" ry="3" fill="#bbdefb" stroke="#1565c0" stroke-width="1"/>
  <rect x="650" y="310" width="420" height="30" rx="3" ry="3" fill="#bbdefb" stroke="#1565c0" stroke-width="1"/>
  <rect x="640" y="366" width="440" height="236" rx="8" ry="8" fill="#e8f5e9" stroke="#2e7d32" stroke-width="2"/>
  <rect x="640" y="366" width="440" height="34" rx="0" ry="0" fill="#c8e6c9" stroke="#2e7d32" stroke-width="2"/>
  <rect x="648" y="402" width="424" height="20" rx="2" ry="2" fill="none" stroke="transparent" stroke-width="1"/>
  <rect x="650" y="426" width="420" height="30" rx="3" ry="3" fill="#c8e6c9" stroke="#2e7d32" stroke-width="1"/>
  <rect x="650" y="460" width="420" height="30" rx="3" ry="3" fill="#c8e6c9" stroke="#2e7d32" stroke-width="1"/>
  <rect x="650" y="494" width="420" height="30" rx="3" ry="3" fill="#c8e6c9" stroke="#2e7d32" stroke-width="1"/>
  <rect x="650" y="528" width="420" height="30" rx="3" ry="3" fill="#c8e6c9" stroke="#2e7d32" stroke-width="1"/>
  <rect x="650" y="562" width="420" height="30" rx="3" ry="3" fill="#c8e6c9" stroke="#2e7d32" stroke-width="1"/>
  <rect x="640" y="618" width="440" height="134" rx="8" ry="8" fill="#fff3e0" stroke="#e65100" stroke-width="2"/>
  <rect x="640" y="618" width="440" height="34" rx="0" ry="0" fill="#ffe0b2" stroke="#e65100" stroke-width="2"/>
  <rect x="648" y="654" width="424" height="20" rx="2" ry="2" fill="none" stroke="transparent" stroke-width="1"/>
  <rect x="650" y="678" width="420" height="30" rx="3" ry="3" fill="#ffe0b2" stroke="#e65100" stroke-width="1"/>
  <rect x="650" y="712" width="420" height="30" rx="3" ry="3" fill="#ffe0b2" stroke="#e65100" stroke-width="1"/>
  <rect x="30" y="916" width="1080" height="76" rx="7.6000000000000005" ry="7.6000000000000005" fill="#fafafa" stroke="#bdbdbd" stroke-width="2"/>
  <rect x="30" y="916" width="1080" height="28" rx="0" ry="0" fill="#e0e0e0" stroke="#bdbdbd" stroke-width="2"/>
  <rect x="42" y="952" width="16" height="16" rx="1.6" ry="1.6" fill="#bbdefb" stroke="#1565c0" stroke-width="1"/>
  <rect x="64" y="948" width="320" height="24" rx="2.4000000000000004" ry="2.4000000000000004" fill="none" stroke="transparent" stroke-width="1"/>
  <rect x="396" y="952" width="16" height="16" rx="1.6" ry="1.6" fill="#c8e6c9" stroke="#2e7d32" stroke-width="1"/>
  <rect x="418" y="948" width="320" height="24" rx="2.4000000000000004" ry="2.4000000000000004" fill="none" stroke="transparent" stroke-width="1"/>
  <rect x="750" y="952" width="16" height="16" rx="1.6" ry="1.6" fill="#ffe0b2" stroke="#e65100" stroke-width="1"/>
  <rect x="772" y="948" width="320" height="24" rx="2.4000000000000004" ry="2.4000000000000004" fill="none" stroke="transparent" stroke-width="1"/>
  <rect x="30" y="996" width="1080" height="24" rx="2.4000000000000004" ry="2.4000000000000004" fill="none" stroke="transparent" stroke-width="1"/>
  <polyline points="464,154 648,155" fill="none" stroke="#1565c0" stroke-width="1" marker-end="url(#ah-1565c0)" stroke-linejoin="round" stroke-linecap="round"/>
  <polyline points="464,186 648,475" fill="none" stroke="#2e7d32" stroke-width="1" marker-end="url(#ah-2e7d32)" stroke-linejoin="round" stroke-linecap="round"/>
  <polyline points="464,218 648,291" fill="none" stroke="#1565c0" stroke-width="1" marker-end="url(#ah-1565c0)" stroke-linejoin="round" stroke-linecap="round"/>
  <polyline points="464,250 648,291" fill="none" stroke="#1565c0" stroke-width="1" marker-end="url(#ah-1565c0)" stroke-linejoin="round" stroke-linecap="round"/>
  <polyline points="464,282 648,291" fill="none" stroke="#1565c0" stroke-width="1" marker-end="url(#ah-1565c0)" stroke-linejoin="round" stroke-linecap="round"/>
  <polyline points="464,314 648,693" fill="none" stroke="#e65100" stroke-width="1" marker-end="url(#ah-e65100)" stroke-linejoin="round" stroke-linecap="round"/>
  <polyline points="464,346 648,543" fill="none" stroke="#2e7d32" stroke-width="1" marker-end="url(#ah-2e7d32)" stroke-linejoin="round" stroke-linecap="round"/>
  <polyline points="464,378 648,475" fill="none" stroke="#2e7d32" stroke-width="1" marker-end="url(#ah-2e7d32)" stroke-linejoin="round" stroke-linecap="round"/>
  <polyline points="464,410 648,727" fill="none" stroke="#e65100" stroke-width="1" marker-end="url(#ah-e65100)" stroke-linejoin="round" stroke-linecap="round"/>
  <polyline points="464,442 648,509" fill="none" stroke="#2e7d32" stroke-width="1" marker-end="url(#ah-2e7d32)" stroke-linejoin="round" stroke-linecap="round"/>
  <polyline points="464,474 648,475" fill="none" stroke="#2e7d32" stroke-width="1" marker-end="url(#ah-2e7d32)" stroke-linejoin="round" stroke-linecap="round"/>
  <polyline points="464,506 648,475" fill="none" stroke="#2e7d32" stroke-width="1" marker-end="url(#ah-2e7d32)" stroke-linejoin="round" stroke-linecap="round"/>
  <polyline points="464,538 648,543" fill="none" stroke="#2e7d32" stroke-width="1" marker-end="url(#ah-2e7d32)" stroke-linejoin="round" stroke-linecap="round"/>
  <polyline points="464,570 648,509" fill="none" stroke="#2e7d32" stroke-width="1" marker-end="url(#ah-2e7d32)" stroke-linejoin="round" stroke-linecap="round"/>
  <polyline points="464,602 648,441" fill="none" stroke="#2e7d32" stroke-width="1" marker-end="url(#ah-2e7d32)" stroke-linejoin="round" stroke-linecap="round"/>
  <polyline points="464,634 648,441" fill="none" stroke="#2e7d32" stroke-width="1" marker-end="url(#ah-2e7d32)" stroke-linejoin="round" stroke-linecap="round"/>
  <polyline points="464,666 648,577" fill="none" stroke="#2e7d32" stroke-width="1" marker-end="url(#ah-2e7d32)" stroke-linejoin="round" stroke-linecap="round"/>
  <polyline points="464,698 648,325" fill="none" stroke="#1565c0" stroke-width="1" marker-end="url(#ah-1565c0)" stroke-linejoin="round" stroke-linecap="round"/>
  <polyline points="464,730 648,189" fill="none" stroke="#1565c0" stroke-width="1" marker-end="url(#ah-1565c0)" stroke-linejoin="round" stroke-linecap="round"/>
  <polyline points="464,762 648,291" fill="none" stroke="#1565c0" stroke-width="1" marker-end="url(#ah-1565c0)" stroke-linejoin="round" stroke-linecap="round"/>
  <polyline points="464,794 648,257" fill="none" stroke="#1565c0" stroke-width="1" marker-end="url(#ah-1565c0)" stroke-linejoin="round" stroke-linecap="round"/>
  <polyline points="464,826 648,223" fill="none" stroke="#1565c0" stroke-width="1" marker-end="url(#ah-1565c0)" stroke-linejoin="round" stroke-linecap="round"/>
  <text x="570" y="30.41" font-size="22" font-family="'Virgil', 'Segoe UI', Helvetica, Arial, sans-serif" font-weight="bold" text-anchor="middle" fill="#1565c0"><tspan x="570" dy="0">CMOTS Batch Jobs  →  New Temporal Workflows</tspan></text>
  <text x="570" y="57.705" font-size="11" font-family="'Virgil', 'Segoe UI', Helvetica, Arial, sans-serif" font-weight="normal" text-anchor="middle" fill="#757575"><tspan x="570" dy="0">Mapping 22 legacy cron processors to engine-specific Temporal workflow groups</tspan></text>
  <text x="250" y="99.325" font-size="15" font-family="'Virgil', 'Segoe UI', Helvetica, Arial, sans-serif" font-weight="normal" text-anchor="middle" fill="#e65100"><tspan x="250" dy="0">Current: 22 CMOTS Batch Jobs</tspan></text>
  <text x="250" y="127.55" font-size="10" font-family="'Virgil', 'Segoe UI', Helvetica, Arial, sans-serif" font-weight="normal" text-anchor="middle" fill="#bf360c"><tspan x="250" dy="0">data-consumer-service  (Spring @Scheduled cron)</tspan></text>
  <text x="70" y="155.55" font-size="10" font-family="'Virgil', 'Segoe UI', Helvetica, Arial, sans-serif" font-weight="normal" text-anchor="middle" fill="#bf360c"><tspan x="70" dy="0">12:30 AM</tspan></text>
  <text x="284" y="155.705" font-size="11" font-family="'Virgil', 'Segoe UI', Helvetica, Arial, sans-serif" font-weight="normal" text-anchor="middle" fill="#1e1e1e"><tspan x="284" dy="0">DataCacheProcessor (Company Master)</tspan></text>
  <text x="70" y="187.55" font-size="10" font-family="'Virgil', 'Segoe UI', Helvetica, Arial, sans-serif" font-weight="normal" text-anchor="middle" fill="#bf360c"><tspan x="70" dy="0">1:00 AM</tspan></text>
  <text x="284" y="187.705" font-size="11" font-family="'Virgil', 'Segoe UI', Helvetica, Arial, sans-serif" font-weight="normal" text-anchor="middle" fill="#1e1e1e"><tspan x="284" dy="0">ForthcomingResultProcessor</tspan></text>
  <text x="70" y="219.55" font-size="10" font-family="'Virgil', 'Segoe UI', Helvetica, Arial, sans-serif" font-weight="normal" text-anchor="middle" fill="#bf360c"><tspan x="70" dy="0">1:15 AM</tspan></text>
  <text x="284" y="219.705" font-size="11" font-family="'Virgil', 'Segoe UI', Helvetica, Arial, sans-serif" font-weight="normal" text-anchor="middle" fill="#1e1e1e"><tspan x="284" dy="0">EquityPivotClassicProcessor</tspan></text>
  <text x="70" y="251.55" font-size="10" font-family="'Virgil', 'Segoe UI', Helvetica, Arial, sans-serif" font-weight="normal" text-anchor="middle" fill="#bf360c"><tspan x="70" dy="0">1:20 AM</tspan></text>
  <text x="284" y="251.705" font-size="11" font-family="'Virgil', 'Segoe UI', Helvetica, Arial, sans-serif" font-weight="normal" text-anchor="middle" fill="#1e1e1e"><tspan x="284" dy="0">EquityPivotFibonacciProcessor</tspan></text>
  <text x="70" y="283.55" font-size="10" font-family="'Virgil', 'Segoe UI', Helvetica, Arial, sans-serif" font-weight="normal" text-anchor="middle" fill="#bf360c"><tspan x="70" dy="0">1:25 AM</tspan></text>
  <text x="284" y="283.705" font-size="11" font-family="'Virgil', 'Segoe UI', Helvetica, Arial, sans-serif" font-weight="normal" text-anchor="middle" fill="#1e1e1e"><tspan x="284" dy="0">EquityPivotCamarillaProcessor</tspan></text>
  <text x="70" y="315.55" font-size="10" font-family="'Virgil', 'Segoe UI', Helvetica, Arial, sans-serif" font-weight="normal" text-anchor="middle" fill="#bf360c"><tspan x="70" dy="0">1:30 AM</tspan></text>
  <text x="284" y="315.705" font-size="11" font-family="'Virgil', 'Segoe UI', Helvetica, Arial, sans-serif" font-weight="normal" text-anchor="middle" fill="#1e1e1e"><tspan x="284" dy="0">ShareholdingPatternProcessor</tspan></text>
  <text x="70" y="347.55" font-size="10" font-family="'Virgil', 'Segoe UI', Helvetica, Arial, sans-serif" font-weight="normal" text-anchor="middle" fill="#bf360c"><tspan x="70" dy="0">1:30 AM</tspan></text>
  <text x="284" y="347.705" font-size="11" font-family="'Virgil', 'Segoe UI', Helvetica, Arial, sans-serif" font-weight="normal" text-anchor="middle" fill="#1e1e1e"><tspan x="284" dy="0">AnnualProfitLossProcessor</tspan></text>
  <text x="70" y="379.55" font-size="10" font-family="'Virgil', 'Segoe UI', Helvetica, Arial, sans-serif" font-weight="normal" text-anchor="middle" fill="#bf360c"><tspan x="70" dy="0">1:30 AM</tspan></text>
  <text x="284" y="379.705" font-size="11" font-family="'Virgil', 'Segoe UI', Helvetica, Arial, sans-serif" font-weight="normal" text-anchor="middle" fill="#1e1e1e"><tspan x="284" dy="0">ForthcomingResultProcessor (retry)</tspan></text>
  <text x="70" y="411.55" font-size="10" font-family="'Virgil', 'Segoe UI', Helvetica, Arial, sans-serif" font-weight="normal" text-anchor="middle" fill="#bf360c"><tspan x="70" dy="0">1:35 AM</tspan></text>
  <text x="284" y="411.705" font-size="11" font-family="'Virgil', 'Segoe UI', Helvetica, Arial, sans-serif" font-weight="normal" text-anchor="middle" fill="#1e1e1e"><tspan x="284" dy="0">PledgeShareProcessor</tspan></text>
  <text x="70" y="443.55" font-size="10" font-family="'Virgil', 'Segoe UI', Helvetica, Arial, sans-serif" font-weight="normal" text-anchor="middle" fill="#bf360c"><tspan x="70" dy="0">1:35 AM</tspan></text>
  <text x="284" y="443.705" font-size="11" font-family="'Virgil', 'Segoe UI', Helvetica, Arial, sans-serif" font-weight="normal" text-anchor="middle" fill="#1e1e1e"><tspan x="284" dy="0">AnnualBalanceSheetProcessor</tspan></text>
  <text x="70" y="475.55" font-size="10" font-family="'Virgil', 'Segoe UI', Helvetica, Arial, sans-serif" font-weight="normal" text-anchor="middle" fill="#bf360c"><tspan x="70" dy="0">1:40 AM</tspan></text>
  <text x="284" y="475.705" font-size="11" font-family="'Virgil', 'Segoe UI', Helvetica, Arial, sans-serif" font-weight="normal" text-anchor="middle" fill="#1e1e1e"><tspan x="284" dy="0">QuarterlyResultsProcessor</tspan></text>
  <text x="70" y="507.55" font-size="10" font-family="'Virgil', 'Segoe UI', Helvetica, Arial, sans-serif" font-weight="normal" text-anchor="middle" fill="#bf360c"><tspan x="70" dy="0">1:45 AM</tspan></text>
  <text x="304" y="507.705" font-size="11" font-family="'Virgil', 'Segoe UI', Helvetica, Arial, sans-serif" font-weight="normal" text-anchor="middle" fill="#1e1e1e"><tspan x="304" dy="0">QuarterlyResultsConsolidatedProcessor</tspan></text>
  <text x="70" y="539.55" font-size="10" font-family="'Virgil', 'Segoe UI', Helvetica, Arial, sans-serif" font-weight="normal" text-anchor="middle" fill="#bf360c"><tspan x="70" dy="0">2:00 AM</tspan></text>
  <text x="284" y="539.705" font-size="11" font-family="'Virgil', 'Segoe UI', Helvetica, Arial, sans-serif" font-weight="normal" text-anchor="middle" fill="#1e1e1e"><tspan x="284" dy="0">ConsolidatedProfitLossProcessor</tspan></text>
  <text x="70" y="571.55" font-size="10" font-family="'Virgil', 'Segoe UI', Helvetica, Arial, sans-serif" font-weight="normal" text-anchor="middle" fill="#bf360c"><tspan x="70" dy="0">2:00 AM</tspan></text>
  <text x="284" y="571.705" font-size="11" font-family="'Virgil', 'Segoe UI', Helvetica, Arial, sans-serif" font-weight="normal" text-anchor="middle" fill="#1e1e1e"><tspan x="284" dy="0">ConsolidatedBalanceSheetProcessor</tspan></text>
  <text x="70" y="603.55" font-size="10" font-family="'Virgil', 'Segoe UI', Helvetica, Arial, sans-serif" font-weight="normal" text-anchor="middle" fill="#bf360c"><tspan x="70" dy="0">2:15 AM</tspan></text>
  <text x="284" y="603.705" font-size="11" font-family="'Virgil', 'Segoe UI', Helvetica, Arial, sans-serif" font-weight="normal" text-anchor="middle" fill="#1e1e1e"><tspan x="284" dy="0">FinancialRatioProcessor</tspan></text>
  <text x="70" y="635.55" font-size="10" font-family="'Virgil', 'Segoe UI', Helvetica, Arial, sans-serif" font-weight="normal" text-anchor="middle" fill="#bf360c"><tspan x="70" dy="0">2:30 AM</tspan></text>
  <text x="284" y="635.705" font-size="11" font-family="'Virgil', 'Segoe UI', Helvetica, Arial, sans-serif" font-weight="normal" text-anchor="middle" fill="#1e1e1e"><tspan x="284" dy="0">FinancialRatioTTMProcessor</tspan></text>
  <text x="70" y="667.55" font-size="10" font-family="'Virgil', 'Segoe UI', Helvetica, Arial, sans-serif" font-weight="normal" text-anchor="middle" fill="#bf360c"><tspan x="70" dy="0">2:45 AM</tspan></text>
  <text x="284" y="667.705" font-size="11" font-family="'Virgil', 'Segoe UI', Helvetica, Arial, sans-serif" font-weight="normal" text-anchor="middle" fill="#1e1e1e"><tspan x="284" dy="0">IndustryRatioProcessor</tspan></text>
  <text x="70" y="699.55" font-size="10" font-family="'Virgil', 'Segoe UI', Helvetica, Arial, sans-serif" font-weight="normal" text-anchor="middle" fill="#bf360c"><tspan x="70" dy="0">3:00 AM</tspan></text>
  <text x="284" y="699.705" font-size="11" font-family="'Virgil', 'Segoe UI', Helvetica, Arial, sans-serif" font-weight="normal" text-anchor="middle" fill="#1e1e1e"><tspan x="284" dy="0">IndexCmotsDataProcessor</tspan></text>
  <text x="70" y="731.55" font-size="10" font-family="'Virgil', 'Segoe UI', Helvetica, Arial, sans-serif" font-weight="normal" text-anchor="middle" fill="#bf360c"><tspan x="70" dy="0">4:30 AM</tspan></text>
  <text x="284" y="731.705" font-size="11" font-family="'Virgil', 'Segoe UI', Helvetica, Arial, sans-serif" font-weight="normal" text-anchor="middle" fill="#1e1e1e"><tspan x="284" dy="0">CorporateActionsProcessor</tspan></text>
  <text x="70" y="763.55" font-size="10" font-family="'Virgil', 'Segoe UI', Helvetica, Arial, sans-serif" font-weight="normal" text-anchor="middle" fill="#bf360c"><tspan x="70" dy="0">5:00 AM</tspan></text>
  <text x="284" y="763.705" font-size="11" font-family="'Virgil', 'Segoe UI', Helvetica, Arial, sans-serif" font-weight="normal" text-anchor="middle" fill="#1e1e1e"><tspan x="284" dy="0">EquityTechnicalRatiosProcessor</tspan></text>
  <text x="70" y="795.55" font-size="10" font-family="'Virgil', 'Segoe UI', Helvetica, Arial, sans-serif" font-weight="normal" text-anchor="middle" fill="#bf360c"><tspan x="70" dy="0">5:15 AM</tspan></text>
  <text x="284" y="795.705" font-size="11" font-family="'Virgil', 'Segoe UI', Helvetica, Arial, sans-serif" font-weight="normal" text-anchor="middle" fill="#1e1e1e"><tspan x="284" dy="0">BhavCopyAggrProcessor (EOD)</tspan></text>
  <text x="70" y="827.55" font-size="10" font-family="'Virgil', 'Segoe UI', Helvetica, Arial, sans-serif" font-weight="normal" text-anchor="middle" fill="#bf360c"><tspan x="70" dy="0">5:45 AM</tspan></text>
  <text x="284" y="827.705" font-size="11" font-family="'Virgil', 'Segoe UI', Helvetica, Arial, sans-serif" font-weight="normal" text-anchor="middle" fill="#1e1e1e"><tspan x="284" dy="0">EODReconciliationProcessor</tspan></text>
  <text x="860" y="99.17" font-size="14" font-family="'Virgil', 'Segoe UI', Helvetica, Arial, sans-serif" font-weight="normal" text-anchor="middle" fill="#1565c0"><tspan x="860" dy="0">Price Engine — Temporal Workflows</tspan></text>
  <text x="860" y="127.55" font-size="10" font-family="'Virgil', 'Segoe UI', Helvetica, Arial, sans-serif" font-weight="normal" text-anchor="middle" fill="#0d47a1"><tspan x="860" dy="0">Replaces price-related CMOTS processors</tspan></text>
  <text x="860" y="156.86" font-size="12" font-family="'Virgil', 'Segoe UI', Helvetica, Arial, sans-serif" font-weight="normal" text-anchor="middle" fill="#1e1e1e"><tspan x="860" dy="0">instrument-sync</tspan></text>
  <text x="860" y="190.86" font-size="12" font-family="'Virgil', 'Segoe UI', Helvetica, Arial, sans-serif" font-weight="normal" text-anchor="middle" fill="#1e1e1e"><tspan x="860" dy="0">corporate-action-sync</tspan></text>
  <text x="860" y="224.86" font-size="12" font-family="'Virgil', 'Segoe UI', Helvetica, Arial, sans-serif" font-weight="normal" text-anchor="middle" fill="#1e1e1e"><tspan x="860" dy="0">eod-reconciliation</tspan></text>
  <text x="860" y="258.86" font-size="12" font-family="'Virgil', 'Segoe UI', Helvetica, Arial, sans-serif" font-weight="normal" text-anchor="middle" fill="#1e1e1e"><tspan x="860" dy="0">bhav-copy-import</tspan></text>
  <text x="860" y="292.86" font-size="12" font-family="'Virgil', 'Segoe UI', Helvetica, Arial, sans-serif" font-weight="normal" text-anchor="middle" fill="#1e1e1e"><tspan x="860" dy="0">technical-indicators</tspan></text>
  <text x="860" y="326.86" font-size="12" font-family="'Virgil', 'Segoe UI', Helvetica, Arial, sans-serif" font-weight="normal" text-anchor="middle" fill="#1e1e1e"><tspan x="860" dy="0">index-data-sync</tspan></text>
  <text x="860" y="385.17" font-size="14" font-family="'Virgil', 'Segoe UI', Helvetica, Arial, sans-serif" font-weight="normal" text-anchor="middle" fill="#2e7d32"><tspan x="860" dy="0">Analytics Engine — Temporal Workflows</tspan></text>
  <text x="860" y="413.55" font-size="10" font-family="'Virgil', 'Segoe UI', Helvetica, Arial, sans-serif" font-weight="normal" text-anchor="middle" fill="#1b5e20"><tspan x="860" dy="0">Financial data analysis &amp; reporting</tspan></text>
  <text x="860" y="442.86" font-size="12" font-family="'Virgil', 'Segoe UI', Helvetica, Arial, sans-serif" font-weight="normal" text-anchor="middle" fill="#1e1e1e"><tspan x="860" dy="0">financial-ratios</tspan></text>
  <text x="860" y="476.86" font-size="12" font-family="'Virgil', 'Segoe UI', Helvetica, Arial, sans-serif" font-weight="normal" text-anchor="middle" fill="#1e1e1e"><tspan x="860" dy="0">quarterly-results</tspan></text>
  <text x="860" y="510.86" font-size="12" font-family="'Virgil', 'Segoe UI', Helvetica, Arial, sans-serif" font-weight="normal" text-anchor="middle" fill="#1e1e1e"><tspan x="860" dy="0">balance-sheet-sync</tspan></text>
  <text x="860" y="544.86" font-size="12" font-family="'Virgil', 'Segoe UI', Helvetica, Arial, sans-serif" font-weight="normal" text-anchor="middle" fill="#1e1e1e"><tspan x="860" dy="0">profit-loss-sync</tspan></text>
  <text x="860" y="578.86" font-size="12" font-family="'Virgil', 'Segoe UI', Helvetica, Arial, sans-serif" font-weight="normal" text-anchor="middle" fill="#1e1e1e"><tspan x="860" dy="0">industry-ratios</tspan></text>
  <text x="860" y="637.17" font-size="14" font-family="'Virgil', 'Segoe UI', Helvetica, Arial, sans-serif" font-weight="normal" text-anchor="middle" fill="#e65100"><tspan x="860" dy="0">Portfolio Engine — Temporal Workflows</tspan></text>
  <text x="860" y="665.55" font-size="10" font-family="'Virgil', 'Segoe UI', Helvetica, Arial, sans-serif" font-weight="normal" text-anchor="middle" fill="#bf360c"><tspan x="860" dy="0">Ownership &amp; governance data</tspan></text>
  <text x="860" y="694.86" font-size="12" font-family="'Virgil', 'Segoe UI', Helvetica, Arial, sans-serif" font-weight="normal" text-anchor="middle" fill="#1e1e1e"><tspan x="860" dy="0">shareholding-pattern</tspan></text>
  <text x="860" y="728.86" font-size="12" font-family="'Virgil', 'Segoe UI', Helvetica, Arial, sans-serif" font-weight="normal" text-anchor="middle" fill="#1e1e1e"><tspan x="860" dy="0">pledge-data</tspan></text>
  <text x="570" y="932.17" font-size="14" font-family="'Virgil', 'Segoe UI', Helvetica, Arial, sans-serif" font-weight="normal" text-anchor="middle" fill="#424242"><tspan x="570" dy="0">Legend</tspan></text>
  <text x="50" y="960.155" font-size="1" font-family="'Virgil', 'Segoe UI', Helvetica, Arial, sans-serif" font-weight="normal" text-anchor="middle" fill="#1e1e1e"><tspan x="50" dy="0"></tspan></text>
  <text x="224" y="961.705" font-size="11" font-family="'Virgil', 'Segoe UI', Helvetica, Arial, sans-serif" font-weight="normal" text-anchor="middle" fill="#424242"><tspan x="224" dy="0">Price Engine (10 jobs → 6 workflows)</tspan></text>
  <text x="404" y="960.155" font-size="1" font-family="'Virgil', 'Segoe UI', Helvetica, Arial, sans-serif" font-weight="normal" text-anchor="middle" fill="#1e1e1e"><tspan x="404" dy="0"></tspan></text>
  <text x="578" y="961.705" font-size="11" font-family="'Virgil', 'Segoe UI', Helvetica, Arial, sans-serif" font-weight="normal" text-anchor="middle" fill="#424242"><tspan x="578" dy="0">Analytics Engine (10 jobs → 5 workflows)</tspan></text>
  <text x="758" y="960.155" font-size="1" font-family="'Virgil', 'Segoe UI', Helvetica, Arial, sans-serif" font-weight="normal" text-anchor="middle" fill="#1e1e1e"><tspan x="758" dy="0"></tspan></text>
  <text x="932" y="961.705" font-size="11" font-family="'Virgil', 'Segoe UI', Helvetica, Arial, sans-serif" font-weight="normal" text-anchor="middle" fill="#424242"><tspan x="932" dy="0">Portfolio Engine (2 jobs → 2 workflows)</tspan></text>
  <text x="570" y="1009.705" font-size="11" font-family="'Virgil', 'Segoe UI', Helvetica, Arial, sans-serif" font-weight="normal" text-anchor="middle" fill="#757575"><tspan x="570" dy="0">22 tightly-coupled cron jobs in a single service  →  13 independent Temporal workflows across 3 focused engines</tspan></text>
</svg>
