<?xml version="1.0" encoding="UTF-8"?>
<svg xmlns="http://www.w3.org/2000/svg" viewBox="-10 -30 1300 1243" width="1300" height="1243">
  <defs>
    <marker id="ah-e65100" markerWidth="12" markerHeight="9" refX="11" refY="4.5" orient="auto" markerUnits="userSpaceOnUse"><polygon points="0 0, 12 4.5, 0 9" fill="#e65100"/></marker>
    <marker id="ahs-e65100" markerWidth="12" markerHeight="9" refX="1" refY="4.5" orient="auto" markerUnits="userSpaceOnUse"><polygon points="12 0, 0 4.5, 12 9" fill="#e65100"/></marker>
    <marker id="ah-4a148c" markerWidth="12" markerHeight="9" refX="11" refY="4.5" orient="auto" markerUnits="userSpaceOnUse"><polygon points="0 0, 12 4.5, 0 9" fill="#4a148c"/></marker>
    <marker id="ahs-4a148c" markerWidth="12" markerHeight="9" refX="1" refY="4.5" orient="auto" markerUnits="userSpaceOnUse"><polygon points="12 0, 0 4.5, 12 9" fill="#4a148c"/></marker>
    <marker id="ah-1565c0" markerWidth="12" markerHeight="9" refX="11" refY="4.5" orient="auto" markerUnits="userSpaceOnUse"><polygon points="0 0, 12 4.5, 0 9" fill="#1565c0"/></marker>
    <marker id="ahs-1565c0" markerWidth="12" markerHeight="9" refX="1" refY="4.5" orient="auto" markerUnits="userSpaceOnUse"><polygon points="12 0, 0 4.5, 12 9" fill="#1565c0"/></marker>
    <marker id="ah-2e7d32" markerWidth="12" markerHeight="9" refX="11" refY="4.5" orient="auto" markerUnits="userSpaceOnUse"><polygon points="0 0, 12 4.5, 0 9" fill="#2e7d32"/></marker>
    <marker id="ahs-2e7d32" markerWidth="12" markerHeight="9" refX="1" refY="4.5" orient="auto" markerUnits="userSpaceOnUse"><polygon points="12 0, 0 4.5, 12 9" fill="#2e7d32"/></marker>
    <marker id="ah-6a1b9a" markerWidth="12" markerHeight="9" refX="11" refY="4.5" orient="auto" markerUnits="userSpaceOnUse"><polygon points="0 0, 12 4.5, 0 9" fill="#6a1b9a"/></marker>
    <marker id="ahs-6a1b9a" markerWidth="12" markerHeight="9" refX="1" refY="4.5" orient="auto" markerUnits="userSpaceOnUse"><polygon points="12 0, 0 4.5, 12 9" fill="#6a1b9a"/></marker>
    <marker id="ah-bf360c" markerWidth="12" markerHeight="9" refX="11" refY="4.5" orient="auto" markerUnits="userSpaceOnUse"><polygon points="0 0, 12 4.5, 0 9" fill="#bf360c"/></marker>
    <marker id="ahs-bf360c" markerWidth="12" markerHeight="9" refX="1" refY="4.5" orient="auto" markerUnits="userSpaceOnUse"><polygon points="12 0, 0 4.5, 12 9" fill="#bf360c"/></marker>
    <marker id="ah-9e9e9e" markerWidth="12" markerHeight="9" refX="11" refY="4.5" orient="auto" markerUnits="userSpaceOnUse"><polygon points="0 0, 12 4.5, 0 9" fill="#9e9e9e"/></marker>
    <marker id="ahs-9e9e9e" markerWidth="12" markerHeight="9" refX="1" refY="4.5" orient="auto" markerUnits="userSpaceOnUse"><polygon points="12 0, 0 4.5, 12 9" fill="#9e9e9e"/></marker>
  </defs>
  <rect x="-10" y="-30" width="1300" height="1243" fill="white"/>
  <rect x="40" y="20" width="1200" height="330" rx="8" ry="8" fill="#fff3e0" stroke="#e65100" stroke-width="2"/>
  <rect x="40" y="20" width="1200" height="30" rx="0" ry="0" fill="#ffcc80" stroke="#e65100" stroke-width="2"/>
  <rect x="70" y="65" width="170" height="65" rx="6.5" ry="6.5" fill="#ffcc80" stroke="#e65100" stroke-width="2"/>
  <rect x="260" y="65" width="170" height="65" rx="6.5" ry="6.5" fill="#ffcc80" stroke="#e65100" stroke-width="2"/>
  <rect x="450" y="65" width="170" height="65" rx="6.5" ry="6.5" fill="#ffe0b2" stroke="#e65100" stroke-width="2"/>
  <rect x="640" y="65" width="170" height="65" rx="6.5" ry="6.5" fill="#ffe0b2" stroke="#e65100" stroke-width="2"/>
  <rect x="830" y="65" width="200" height="65" rx="6.5" ry="6.5" fill="#fff8e1" stroke="#f57f17" stroke-width="1" stroke-dasharray="4 4"/>
  <rect x="70" y="145" width="1140" height="45" rx="4.5" ry="4.5" fill="#fff3e0" stroke="#e65100" stroke-width="1"/>
  <rect x="70" y="202" width="560" height="45" rx="4.5" ry="4.5" fill="#fff3e0" stroke="#e65100" stroke-width="1"/>
  <rect x="650" y="202" width="560" height="45" rx="4.5" ry="4.5" fill="#fff3e0" stroke="#9e9e9e" stroke-width="1" stroke-dasharray="4 4"/>
  <rect x="70" y="259" width="1140" height="30" rx="3" ry="3" fill="#e0e0e0" stroke="#616161" stroke-width="1" stroke-dasharray="4 4"/>
  <rect x="40" y="370" width="1200" height="80" rx="8" ry="8" fill="#f3e5f5" stroke="#4a148c" stroke-width="2"/>
  <rect x="40" y="370" width="1200" height="30" rx="0" ry="0" fill="#ce93d8" stroke="#4a148c" stroke-width="2"/>
  <rect x="80" y="408" width="350" height="35" rx="3.5" ry="3.5" fill="#e1bee7" stroke="#4a148c" stroke-width="1"/>
  <rect x="450" y="408" width="350" height="35" rx="3.5" ry="3.5" fill="#e1bee7" stroke="#4a148c" stroke-width="1"/>
  <rect x="820" y="408" width="380" height="35" rx="3.5" ry="3.5" fill="#e1bee7" stroke="#4a148c" stroke-width="1"/>
  <rect x="40" y="470" width="1200" height="280" rx="8" ry="8" fill="#e3f2fd" stroke="#1565c0" stroke-width="2"/>
  <rect x="40" y="470" width="1200" height="30" rx="0" ry="0" fill="#90caf9" stroke="#1565c0" stroke-width="2"/>
  <rect x="70" y="515" width="220" height="65" rx="6.5" ry="6.5" fill="#bbdefb" stroke="#1565c0" stroke-width="1"/>
  <rect x="310" y="515" width="220" height="65" rx="6.5" ry="6.5" fill="#bbdefb" stroke="#1565c0" stroke-width="1"/>
  <rect x="550" y="515" width="220" height="65" rx="6.5" ry="6.5" fill="#bbdefb" stroke="#1565c0" stroke-width="1"/>
  <rect x="790" y="515" width="390" height="125" rx="8" ry="8" fill="#e3f2fd" stroke="#0d47a1" stroke-width="2"/>
  <rect x="70" y="595" width="730" height="40" rx="4" ry="4" fill="#bbdefb" stroke="#1565c0" stroke-width="1"/>
  <rect x="70" y="650" width="1140" height="50" rx="5" ry="5" fill="#c8e6c9" stroke="#2e7d32" stroke-width="2"/>
  <rect x="40" y="770" width="1200" height="110" rx="8" ry="8" fill="#e8f5e9" stroke="#2e7d32" stroke-width="2"/>
  <rect x="40" y="770" width="1200" height="30" rx="0" ry="0" fill="#a5d6a7" stroke="#2e7d32" stroke-width="2"/>
  <rect x="85" y="810" width="250" height="55" rx="5.5" ry="5.5" fill="#c8e6c9" stroke="#2e7d32" stroke-width="1"/>
  <rect x="365" y="810" width="250" height="55" rx="5.5" ry="5.5" fill="#c8e6c9" stroke="#2e7d32" stroke-width="1"/>
  <rect x="645" y="810" width="250" height="55" rx="5.5" ry="5.5" fill="#c8e6c9" stroke="#2e7d32" stroke-width="1"/>
  <rect x="40" y="900" width="1200" height="75" rx="7.5" ry="7.5" fill="#f3e5f5" stroke="#6a1b9a" stroke-width="2"/>
  <rect x="40" y="900" width="1200" height="30" rx="0" ry="0" fill="#ce93d8" stroke="#6a1b9a" stroke-width="2"/>
  <rect x="80" y="936" width="1120" height="32" rx="3.2" ry="3.2" fill="#e1bee7" stroke="#6a1b9a" stroke-width="1"/>
  <rect x="40" y="995" width="1200" height="120" rx="8" ry="8" fill="#fbe9e7" stroke="#bf360c" stroke-width="2"/>
  <rect x="40" y="995" width="1200" height="30" rx="0" ry="0" fill="#ffab91" stroke="#bf360c" stroke-width="2"/>
  <rect x="75" y="1035" width="220" height="50" rx="5" ry="5" fill="#ffccbc" stroke="#bf360c" stroke-width="1"/>
  <rect x="313" y="1035" width="220" height="50" rx="5" ry="5" fill="#ffccbc" stroke="#bf360c" stroke-width="1"/>
  <rect x="551" y="1035" width="220" height="50" rx="5" ry="5" fill="#ffccbc" stroke="#bf360c" stroke-width="1"/>
  <rect x="789" y="1035" width="220" height="50" rx="5" ry="5" fill="#ffccbc" stroke="#bf360c" stroke-width="1"/>
  <rect x="80" y="1125" width="1120" height="38" rx="3.8000000000000003" ry="3.8000000000000003" fill="#fafafa" stroke="#9e9e9e" stroke-width="1" stroke-dasharray="4 4"/>
  <polyline points="155,130 155,145" fill="none" stroke="#e65100" stroke-width="2" marker-end="url(#ah-e65100)" stroke-linejoin="round" stroke-linecap="round"/>
  <polyline points="345,130 345,145" fill="none" stroke="#e65100" stroke-width="2" marker-end="url(#ah-e65100)" stroke-linejoin="round" stroke-linecap="round"/>
  <polyline points="535,130 535,145" fill="none" stroke="#e65100" stroke-width="2" marker-end="url(#ah-e65100)" stroke-linejoin="round" stroke-linecap="round"/>
  <polyline points="725,130 725,145" fill="none" stroke="#e65100" stroke-width="2" marker-end="url(#ah-e65100)" stroke-linejoin="round" stroke-linecap="round"/>
  <polyline points="355,190 350,202" fill="none" stroke="#e65100" stroke-width="2" marker-end="url(#ah-e65100)" stroke-linejoin="round" stroke-linecap="round"/>
  <polyline points="640,350 640,370" fill="none" stroke="#4a148c" stroke-width="3" marker-end="url(#ah-4a148c)" stroke-linejoin="round" stroke-linecap="round"/>
  <polyline points="640,450 640,470" fill="none" stroke="#1565c0" stroke-width="3" marker-end="url(#ah-1565c0)" stroke-linejoin="round" stroke-linecap="round"/>
  <polyline points="640,750 640,770" fill="none" stroke="#2e7d32" stroke-width="2" marker-end="url(#ah-2e7d32)" stroke-linejoin="round" stroke-linecap="round"/>
  <polyline points="340,880 340,900" fill="none" stroke="#6a1b9a" stroke-width="1" stroke-dasharray="4 4" marker-end="url(#ah-6a1b9a)" stroke-linejoin="round" stroke-linecap="round"/>
  <polyline points="940,900 940,880" fill="none" stroke="#6a1b9a" stroke-width="1" stroke-dasharray="4 4" marker-end="url(#ah-6a1b9a)" stroke-linejoin="round" stroke-linecap="round"/>
  <polyline points="640,750 840,995" fill="none" stroke="#bf360c" stroke-width="2" marker-end="url(#ah-bf360c)" stroke-linejoin="round" stroke-linecap="round"/>
  <polyline points="640,1115 640,1125" fill="none" stroke="#9e9e9e" stroke-width="1" stroke-dasharray="4 4" marker-end="url(#ah-9e9e9e)" stroke-linejoin="round" stroke-linecap="round"/>
  <text x="640" y="37.480000000000004" font-size="16" font-family="'Virgil', 'Segoe UI', Helvetica, Arial, sans-serif" font-weight="normal" text-anchor="middle" fill="#e65100"><tspan x="640" dy="0">COLOCATION (Exchange Co-lo, Mumbai)</tspan></text>
  <text x="155" y="84.36" font-size="12" font-family="'Virgil', 'Segoe UI', Helvetica, Arial, sans-serif" font-weight="normal" text-anchor="middle" fill="#1e1e1e"><tspan x="155" dy="0">NSE Feed</tspan><tspan x="155" dy="15">Handler A</tspan><tspan x="155" dy="15">(PRIMARY)</tspan></text>
  <text x="345" y="84.36" font-size="12" font-family="'Virgil', 'Segoe UI', Helvetica, Arial, sans-serif" font-weight="normal" text-anchor="middle" fill="#1e1e1e"><tspan x="345" dy="0">BSE Feed</tspan><tspan x="345" dy="15">Handler A</tspan><tspan x="345" dy="15">(PRIMARY)</tspan></text>
  <text x="535" y="84.36" font-size="12" font-family="'Virgil', 'Segoe UI', Helvetica, Arial, sans-serif" font-weight="normal" text-anchor="middle" fill="#1e1e1e"><tspan x="535" dy="0">NSE Feed</tspan><tspan x="535" dy="15">Handler B</tspan><tspan x="535" dy="15">(STANDBY)</tspan></text>
  <text x="725" y="84.36" font-size="12" font-family="'Virgil', 'Segoe UI', Helvetica, Arial, sans-serif" font-weight="normal" text-anchor="middle" fill="#1e1e1e"><tspan x="725" dy="0">BSE Feed</tspan><tspan x="725" dy="15">Handler B</tspan><tspan x="725" dy="15">(STANDBY)</tspan></text>
  <text x="930" y="85.455" font-size="11" font-family="'Virgil', 'Segoe UI', Helvetica, Arial, sans-serif" font-weight="normal" text-anchor="middle" fill="#1e1e1e"><tspan x="930" dy="0">Exchange UDP</tspan><tspan x="930" dy="13.75">Multicast Feed</tspan><tspan x="930" dy="13.75">(NSE/BSE binary)</tspan></text>
  <text x="640" y="169.515" font-size="13" font-family="'Virgil', 'Segoe UI', Helvetica, Arial, sans-serif" font-weight="normal" text-anchor="middle" fill="#1e1e1e"><tspan x="640" dy="0">Normalizer (Exchange binary -&gt; common tick schema)</tspan></text>
  <text x="350" y="226.36" font-size="12" font-family="'Virgil', 'Segoe UI', Helvetica, Arial, sans-serif" font-weight="normal" text-anchor="middle" fill="#1e1e1e"><tspan x="350" dy="0">Bad Tick Detector (Statistical outlier filter)</tspan></text>
  <text x="930" y="226.205" font-size="11" font-family="'Virgil', 'Segoe UI', Helvetica, Arial, sans-serif" font-weight="normal" text-anchor="middle" fill="#616161"><tspan x="930" dy="0">Redis ElastiCache (centralized snapshot store — shared across all pods)</tspan></text>
  <text x="640" y="275.705" font-size="11" font-family="'Virgil', 'Segoe UI', Helvetica, Arial, sans-serif" font-weight="normal" text-anchor="middle" fill="#424242"><tspan x="640" dy="0">Dedicated Network Link (Co-lo -&gt; AWS ap-south-1)</tspan></text>
  <text x="640" y="387.48" font-size="16" font-family="'Virgil', 'Segoe UI', Helvetica, Arial, sans-serif" font-weight="normal" text-anchor="middle" fill="#4a148c"><tspan x="640" dy="0">KAFKA (Ingest Message Bus)</tspan></text>
  <text x="255" y="427.205" font-size="11" font-family="'Virgil', 'Segoe UI', Helvetica, Arial, sans-serif" font-weight="normal" text-anchor="middle" fill="#1e1e1e"><tspan x="255" dy="0">price.ticks.raw  (validated, normalized ticks)</tspan></text>
  <text x="625" y="427.205" font-size="11" font-family="'Virgil', 'Segoe UI', Helvetica, Arial, sans-serif" font-weight="normal" text-anchor="middle" fill="#1e1e1e"><tspan x="625" dy="0">price.corrections  (exchange corrections / reversals)</tspan></text>
  <text x="1010" y="427.205" font-size="11" font-family="'Virgil', 'Segoe UI', Helvetica, Arial, sans-serif" font-weight="normal" text-anchor="middle" fill="#1e1e1e"><tspan x="1010" dy="0">price.corporate-actions  (splits, bonus, dividends)</tspan></text>
  <text x="640" y="487.48" font-size="16" font-family="'Virgil', 'Segoe UI', Helvetica, Arial, sans-serif" font-weight="normal" text-anchor="middle" fill="#1565c0"><tspan x="640" dy="0">PRICE ENGINE (N instances, AWS ap-south-1)</tspan></text>
  <text x="180" y="541.86" font-size="12" font-family="'Virgil', 'Segoe UI', Helvetica, Arial, sans-serif" font-weight="normal" text-anchor="middle" fill="#1e1e1e"><tspan x="180" dy="0">Corporate Action</tspan><tspan x="180" dy="15">Processor</tspan></text>
  <text x="420" y="541.86" font-size="12" font-family="'Virgil', 'Segoe UI', Helvetica, Arial, sans-serif" font-weight="normal" text-anchor="middle" fill="#1e1e1e"><tspan x="420" dy="0">Candle Aggregator</tspan><tspan x="420" dy="15">(1m, 5m, 15m, 1h, 1d)</tspan></text>
  <text x="660" y="541.86" font-size="12" font-family="'Virgil', 'Segoe UI', Helvetica, Arial, sans-serif" font-weight="normal" text-anchor="middle" fill="#1e1e1e"><tspan x="660" dy="0">Option Chain Builder</tspan><tspan x="660" dy="15">+ Greeks Calculator</tspan></text>
  <text x="985" y="544.83" font-size="11" font-family="'Virgil', 'Segoe UI', Helvetica, Arial, sans-serif" font-weight="normal" text-anchor="middle" fill="#0d47a1"><tspan x="985" dy="0">SELF-HEALING</tspan><tspan x="985" dy="13.75">SUPERVISOR</tspan><tspan x="985" dy="13.75"></tspan><tspan x="985" dy="13.75">Feed gap detection</tspan><tspan x="985" dy="13.75">Stale price detection</tspan><tspan x="985" dy="13.75">Auto-reconnection</tspan></text>
  <text x="435" y="616.86" font-size="12" font-family="'Virgil', 'Segoe UI', Helvetica, Arial, sans-serif" font-weight="normal" text-anchor="middle" fill="#1e1e1e"><tspan x="435" dy="0">ALERT ENGINE: Price alerts / Volume alerts / IV alerts / Circuit alerts / 52wk H-L</tspan></text>
  <text x="640" y="668.89" font-size="13" font-family="'Virgil', 'Segoe UI', Helvetica, Arial, sans-serif" font-weight="normal" text-anchor="middle" fill="#1b5e20"><tspan x="640" dy="0">REDIS CLUSTER (Shared Live Snapshot)</tspan><tspan x="640" dy="16.25">90,000 instruments / replicated across instances / sub-ms reads</tspan></text>
  <text x="640" y="787.48" font-size="16" font-family="'Virgil', 'Segoe UI', Helvetica, Arial, sans-serif" font-weight="normal" text-anchor="middle" fill="#2e7d32"><tspan x="640" dy="0">STORAGE LAYER</tspan></text>
  <text x="210" y="831.86" font-size="12" font-family="'Virgil', 'Segoe UI', Helvetica, Arial, sans-serif" font-weight="normal" text-anchor="middle" fill="#1e1e1e"><tspan x="210" dy="0">QuestDB</tspan><tspan x="210" dy="15">(candles, ticks — time-series)</tspan></text>
  <text x="490" y="831.86" font-size="12" font-family="'Virgil', 'Segoe UI', Helvetica, Arial, sans-serif" font-weight="normal" text-anchor="middle" fill="#1e1e1e"><tspan x="490" dy="0">PostgreSQL</tspan><tspan x="490" dy="15">(instrument master, corp actions, audit)</tspan></text>
  <text x="770" y="831.86" font-size="12" font-family="'Virgil', 'Segoe UI', Helvetica, Arial, sans-serif" font-weight="normal" text-anchor="middle" fill="#1e1e1e"><tspan x="770" dy="0">S3</tspan><tspan x="770" dy="15">(candle archive, EOD Parquet files)</tspan></text>
  <text x="640" y="917.48" font-size="16" font-family="'Virgil', 'Segoe UI', Helvetica, Arial, sans-serif" font-weight="normal" text-anchor="middle" fill="#6a1b9a"><tspan x="640" dy="0">TEMPORAL (Workflow Engine)</tspan></text>
  <text x="640" y="953.705" font-size="11" font-family="'Virgil', 'Segoe UI', Helvetica, Arial, sans-serif" font-weight="normal" text-anchor="middle" fill="#1e1e1e"><tspan x="640" dy="0">EOD Reconciliation / Candle Generation / Corporate Actions / Instrument Sync / Historical Archival / Feed Health</tspan></text>
  <text x="640" y="1012.48" font-size="16" font-family="'Virgil', 'Segoe UI', Helvetica, Arial, sans-serif" font-weight="normal" text-anchor="middle" fill="#bf360c"><tspan x="640" dy="0">KAFKA (Output Topics — Downstream Engines)</tspan></text>
  <text x="185" y="1054.83" font-size="11" font-family="'Virgil', 'Segoe UI', Helvetica, Arial, sans-serif" font-weight="normal" text-anchor="middle" fill="#1e1e1e"><tspan x="185" dy="0">price.ticks.enriched</tspan><tspan x="185" dy="13.75">(LTP, OHLC, Greeks)</tspan></text>
  <text x="423" y="1054.83" font-size="11" font-family="'Virgil', 'Segoe UI', Helvetica, Arial, sans-serif" font-weight="normal" text-anchor="middle" fill="#1e1e1e"><tspan x="423" dy="0">price.candles</tspan><tspan x="423" dy="13.75">(1m, 5m, 15m, 1h, 1d)</tspan></text>
  <text x="661" y="1054.83" font-size="11" font-family="'Virgil', 'Segoe UI', Helvetica, Arial, sans-serif" font-weight="normal" text-anchor="middle" fill="#1e1e1e"><tspan x="661" dy="0">price.alerts</tspan><tspan x="661" dy="13.75">(circuit, 52wk, volume)</tspan></text>
  <text x="899" y="1054.83" font-size="11" font-family="'Virgil', 'Segoe UI', Helvetica, Arial, sans-serif" font-weight="normal" text-anchor="middle" fill="#1e1e1e"><tspan x="899" dy="0">price.snapshots</tspan><tspan x="899" dy="13.75">(full instrument state)</tspan></text>
  <text x="640" y="1145.86" font-size="12" font-family="'Virgil', 'Segoe UI', Helvetica, Arial, sans-serif" font-weight="normal" text-anchor="middle" fill="#616161"><tspan x="640" dy="0">Downstream: Trade Engine / Portfolio Engine / Distribution Layer (WebSocket) / Risk Engine / Analytics-BI</tspan></text>
</svg>
