<?xml version="1.0" encoding="UTF-8"?>
<svg xmlns="http://www.w3.org/2000/svg" viewBox="-30 -40 1230 760" width="1230" height="760">
  <defs>
    <marker id="ah-7e57c2" markerWidth="12" markerHeight="9" refX="11" refY="4.5" orient="auto" markerUnits="userSpaceOnUse"><polygon points="0 0, 12 4.5, 0 9" fill="#7e57c2"/></marker>
    <marker id="ahs-7e57c2" markerWidth="12" markerHeight="9" refX="1" refY="4.5" orient="auto" markerUnits="userSpaceOnUse"><polygon points="12 0, 0 4.5, 12 9" fill="#7e57c2"/></marker>
    <marker id="ah-2e7d32" markerWidth="12" markerHeight="9" refX="11" refY="4.5" orient="auto" markerUnits="userSpaceOnUse"><polygon points="0 0, 12 4.5, 0 9" fill="#2e7d32"/></marker>
    <marker id="ahs-2e7d32" markerWidth="12" markerHeight="9" refX="1" refY="4.5" orient="auto" markerUnits="userSpaceOnUse"><polygon points="12 0, 0 4.5, 12 9" fill="#2e7d32"/></marker>
    <marker id="ah-1565c0" markerWidth="12" markerHeight="9" refX="11" refY="4.5" orient="auto" markerUnits="userSpaceOnUse"><polygon points="0 0, 12 4.5, 0 9" fill="#1565c0"/></marker>
    <marker id="ahs-1565c0" markerWidth="12" markerHeight="9" refX="1" refY="4.5" orient="auto" markerUnits="userSpaceOnUse"><polygon points="12 0, 0 4.5, 12 9" fill="#1565c0"/></marker>
    <marker id="ah-6a1b9a" markerWidth="12" markerHeight="9" refX="11" refY="4.5" orient="auto" markerUnits="userSpaceOnUse"><polygon points="0 0, 12 4.5, 0 9" fill="#6a1b9a"/></marker>
    <marker id="ahs-6a1b9a" markerWidth="12" markerHeight="9" refX="1" refY="4.5" orient="auto" markerUnits="userSpaceOnUse"><polygon points="12 0, 0 4.5, 12 9" fill="#6a1b9a"/></marker>
    <marker id="ah-e65100" markerWidth="12" markerHeight="9" refX="11" refY="4.5" orient="auto" markerUnits="userSpaceOnUse"><polygon points="0 0, 12 4.5, 0 9" fill="#e65100"/></marker>
    <marker id="ahs-e65100" markerWidth="12" markerHeight="9" refX="1" refY="4.5" orient="auto" markerUnits="userSpaceOnUse"><polygon points="12 0, 0 4.5, 12 9" fill="#e65100"/></marker>
  </defs>
  <rect x="-30" y="-40" width="1230" height="760" fill="white"/>
  <rect x="150" y="10" width="1000" height="40" rx="4" ry="4" fill="none" stroke="transparent" stroke-width="1"/>
  <rect x="20" y="70" width="280" height="300" rx="8" ry="8" fill="none" stroke="#2e7d32" stroke-width="2"/>
  <rect x="20" y="70" width="280" height="30" rx="0" ry="0" fill="#e8f5e9" stroke="#2e7d32" stroke-width="2"/>
  <rect x="30" y="110" width="260" height="35" rx="3.5" ry="3.5" fill="#f1f8e9" stroke="#66bb6a" stroke-width="1"/>
  <rect x="30" y="152" width="260" height="35" rx="3.5" ry="3.5" fill="#f1f8e9" stroke="#66bb6a" stroke-width="1"/>
  <rect x="30" y="194" width="260" height="35" rx="3.5" ry="3.5" fill="#f1f8e9" stroke="#66bb6a" stroke-width="1"/>
  <rect x="30" y="236" width="260" height="35" rx="3.5" ry="3.5" fill="#f1f8e9" stroke="#66bb6a" stroke-width="1"/>
  <rect x="30" y="278" width="260" height="35" rx="3.5" ry="3.5" fill="#f1f8e9" stroke="#66bb6a" stroke-width="1"/>
  <rect x="30" y="320" width="260" height="35" rx="3.5" ry="3.5" fill="#f1f8e9" stroke="#66bb6a" stroke-width="1"/>
  <rect x="320" y="70" width="340" height="300" rx="8" ry="8" fill="none" stroke="#1565c0" stroke-width="2"/>
  <rect x="320" y="70" width="340" height="30" rx="0" ry="0" fill="#e3f2fd" stroke="#1565c0" stroke-width="2"/>
  <rect x="330" y="110" width="320" height="35" rx="3.5" ry="3.5" fill="#e8eaf6" stroke="#5c6bc0" stroke-width="1"/>
  <rect x="330" y="152" width="320" height="48" rx="4.800000000000001" ry="4.800000000000001" fill="#e8eaf6" stroke="#5c6bc0" stroke-width="1"/>
  <rect x="330" y="207" width="320" height="35" rx="3.5" ry="3.5" fill="#e8eaf6" stroke="#5c6bc0" stroke-width="1"/>
  <rect x="330" y="249" width="320" height="35" rx="3.5" ry="3.5" fill="#e8eaf6" stroke="#5c6bc0" stroke-width="1"/>
  <rect x="330" y="291" width="320" height="35" rx="3.5" ry="3.5" fill="#e8eaf6" stroke="#5c6bc0" stroke-width="1"/>
  <rect x="680" y="70" width="410" height="300" rx="8" ry="8" fill="none" stroke="#c62828" stroke-width="2"/>
  <rect x="680" y="70" width="410" height="30" rx="0" ry="0" fill="#fce4ec" stroke="#c62828" stroke-width="2"/>
  <rect x="690" y="108" width="390" height="48" rx="4.800000000000001" ry="4.800000000000001" fill="#fff8e1" stroke="#f57f17" stroke-width="1"/>
  <rect x="690" y="163" width="390" height="38" rx="3.8000000000000003" ry="3.8000000000000003" fill="#fff8e1" stroke="#f57f17" stroke-width="1"/>
  <rect x="690" y="208" width="390" height="48" rx="4.800000000000001" ry="4.800000000000001" fill="#fff8e1" stroke="#f57f17" stroke-width="1"/>
  <rect x="690" y="263" width="390" height="38" rx="3.8000000000000003" ry="3.8000000000000003" fill="#fff8e1" stroke="#f57f17" stroke-width="1"/>
  <rect x="690" y="308" width="390" height="38" rx="3.8000000000000003" ry="3.8000000000000003" fill="#fff8e1" stroke="#f57f17" stroke-width="1"/>
  <rect x="20" y="390" width="1070" height="120" rx="8" ry="8" fill="none" stroke="#6a1b9a" stroke-width="2"/>
  <rect x="20" y="390" width="1070" height="30" rx="0" ry="0" fill="#f3e5f5" stroke="#6a1b9a" stroke-width="2"/>
  <rect x="35" y="435" width="120" height="50" rx="5" ry="5" fill="#ede7f6" stroke="#7e57c2" stroke-width="1"/>
  <rect x="177" y="435" width="120" height="50" rx="5" ry="5" fill="#ede7f6" stroke="#7e57c2" stroke-width="1"/>
  <rect x="319" y="435" width="120" height="50" rx="5" ry="5" fill="#ede7f6" stroke="#7e57c2" stroke-width="1"/>
  <rect x="461" y="435" width="120" height="50" rx="5" ry="5" fill="#ede7f6" stroke="#7e57c2" stroke-width="1"/>
  <rect x="603" y="435" width="120" height="50" rx="5" ry="5" fill="#ede7f6" stroke="#7e57c2" stroke-width="1"/>
  <rect x="745" y="435" width="120" height="50" rx="5" ry="5" fill="#ede7f6" stroke="#7e57c2" stroke-width="1"/>
  <rect x="887" y="435" width="120" height="50" rx="5" ry="5" fill="#ede7f6" stroke="#7e57c2" stroke-width="1"/>
  <rect x="20" y="530" width="1070" height="140" rx="8" ry="8" fill="none" stroke="#e65100" stroke-width="2"/>
  <rect x="20" y="530" width="1070" height="30" rx="0" ry="0" fill="#fff3e0" stroke="#e65100" stroke-width="2"/>
  <rect x="35" y="575" width="245" height="70" rx="7" ry="7" fill="#fff8e1" stroke="#f57f17" stroke-width="1"/>
  <rect x="295" y="575" width="245" height="70" rx="7" ry="7" fill="#fff8e1" stroke="#f57f17" stroke-width="1"/>
  <rect x="555" y="575" width="245" height="70" rx="7" ry="7" fill="#fff8e1" stroke="#f57f17" stroke-width="1"/>
  <rect x="815" y="575" width="245" height="70" rx="7" ry="7" fill="#fff8e1" stroke="#f57f17" stroke-width="1"/>
  <polyline points="155,460 177,460" fill="none" stroke="#7e57c2" stroke-width="2" marker-end="url(#ah-7e57c2)" stroke-linejoin="round" stroke-linecap="round"/>
  <polyline points="297,460 319,460" fill="none" stroke="#7e57c2" stroke-width="2" marker-end="url(#ah-7e57c2)" stroke-linejoin="round" stroke-linecap="round"/>
  <polyline points="439,460 461,460" fill="none" stroke="#7e57c2" stroke-width="2" marker-end="url(#ah-7e57c2)" stroke-linejoin="round" stroke-linecap="round"/>
  <polyline points="581,460 603,460" fill="none" stroke="#7e57c2" stroke-width="2" marker-end="url(#ah-7e57c2)" stroke-linejoin="round" stroke-linecap="round"/>
  <polyline points="723,460 745,460" fill="none" stroke="#7e57c2" stroke-width="2" marker-end="url(#ah-7e57c2)" stroke-linejoin="round" stroke-linecap="round"/>
  <polyline points="865,460 887,460" fill="none" stroke="#7e57c2" stroke-width="2" marker-end="url(#ah-7e57c2)" stroke-linejoin="round" stroke-linecap="round"/>
  <polyline points="300,220 320,220" fill="none" stroke="#2e7d32" stroke-width="2" marker-end="url(#ah-2e7d32)" stroke-linejoin="round" stroke-linecap="round"/>
  <polyline points="660,220 680,220" fill="none" stroke="#1565c0" stroke-width="2" marker-end="url(#ah-1565c0)" stroke-linejoin="round" stroke-linecap="round"/>
  <polyline points="490,370 555,390" fill="none" stroke="#6a1b9a" stroke-width="2" marker-end="url(#ah-6a1b9a)" stroke-linejoin="round" stroke-linecap="round"/>
  <polyline points="555,510 555,530" fill="none" stroke="#e65100" stroke-width="2" marker-end="url(#ah-e65100)" stroke-linejoin="round" stroke-linecap="round"/>
  <text x="650" y="33.1" font-size="20" font-family="'Virgil', 'Segoe UI', Helvetica, Arial, sans-serif" font-weight="bold" text-anchor="middle" fill="#1565c0"><tspan x="650" dy="0">Greeks Computation Flow — Options Price Enrichment</tspan></text>
  <text x="160" y="87.325" font-size="15" font-family="'Virgil', 'Segoe UI', Helvetica, Arial, sans-serif" font-weight="normal" text-anchor="middle" fill="#2e7d32"><tspan x="160" dy="0">1. Input Data</tspan></text>
  <text x="160" y="129.515" font-size="13" font-family="'Virgil', 'Segoe UI', Helvetica, Arial, sans-serif" font-weight="normal" text-anchor="middle" fill="#1b5e20"><tspan x="160" dy="0">Option tick (LTP, volume, OI)</tspan></text>
  <text x="160" y="171.515" font-size="13" font-family="'Virgil', 'Segoe UI', Helvetica, Arial, sans-serif" font-weight="normal" text-anchor="middle" fill="#1b5e20"><tspan x="160" dy="0">Underlying price (spot/futures)</tspan></text>
  <text x="160" y="213.515" font-size="13" font-family="'Virgil', 'Segoe UI', Helvetica, Arial, sans-serif" font-weight="normal" text-anchor="middle" fill="#1b5e20"><tspan x="160" dy="0">Strike price</tspan></text>
  <text x="160" y="255.515" font-size="13" font-family="'Virgil', 'Segoe UI', Helvetica, Arial, sans-serif" font-weight="normal" text-anchor="middle" fill="#1b5e20"><tspan x="160" dy="0">Expiry date</tspan></text>
  <text x="160" y="297.515" font-size="13" font-family="'Virgil', 'Segoe UI', Helvetica, Arial, sans-serif" font-weight="normal" text-anchor="middle" fill="#1b5e20"><tspan x="160" dy="0">Risk-free rate</tspan></text>
  <text x="160" y="339.515" font-size="13" font-family="'Virgil', 'Segoe UI', Helvetica, Arial, sans-serif" font-weight="normal" text-anchor="middle" fill="#1b5e20"><tspan x="160" dy="0">Dividend yield</tspan></text>
  <text x="490" y="87.325" font-size="15" font-family="'Virgil', 'Segoe UI', Helvetica, Arial, sans-serif" font-weight="normal" text-anchor="middle" fill="#1565c0"><tspan x="490" dy="0">2. Implied Volatility Solver</tspan></text>
  <text x="490" y="129.515" font-size="13" font-family="'Virgil', 'Segoe UI', Helvetica, Arial, sans-serif" font-weight="normal" text-anchor="middle" fill="#1a237e"><tspan x="490" dy="0">Newton-Raphson iteration</tspan></text>
  <text x="490" y="169.89" font-size="13" font-family="'Virgil', 'Segoe UI', Helvetica, Arial, sans-serif" font-weight="normal" text-anchor="middle" fill="#1a237e"><tspan x="490" dy="0">Market Price vs Theoretical</tspan><tspan x="490" dy="16.25">Price convergence</tspan></text>
  <text x="490" y="226.515" font-size="13" font-family="'Virgil', 'Segoe UI', Helvetica, Arial, sans-serif" font-weight="normal" text-anchor="middle" fill="#1a237e"><tspan x="490" dy="0">Tolerance: 0.0001</tspan></text>
  <text x="490" y="268.515" font-size="13" font-family="'Virgil', 'Segoe UI', Helvetica, Arial, sans-serif" font-weight="normal" text-anchor="middle" fill="#1a237e"><tspan x="490" dy="0">Max iterations: 100</tspan></text>
  <text x="490" y="310.515" font-size="13" font-family="'Virgil', 'Segoe UI', Helvetica, Arial, sans-serif" font-weight="normal" text-anchor="middle" fill="#1a237e"><tspan x="490" dy="0">Fallback: bisection method</tspan></text>
  <text x="885" y="87.325" font-size="15" font-family="'Virgil', 'Segoe UI', Helvetica, Arial, sans-serif" font-weight="normal" text-anchor="middle" fill="#c62828"><tspan x="885" dy="0">3. Greeks Formulas (Black-Scholes)</tspan></text>
  <text x="885" y="126.36" font-size="12" font-family="'Virgil', 'Segoe UI', Helvetica, Arial, sans-serif" font-weight="normal" text-anchor="middle" fill="#4e342e"><tspan x="885" dy="0">Delta = N(d1) for calls</tspan><tspan x="885" dy="15">Delta = N(d1)-1 for puts</tspan></text>
  <text x="885" y="183.86" font-size="12" font-family="'Virgil', 'Segoe UI', Helvetica, Arial, sans-serif" font-weight="normal" text-anchor="middle" fill="#4e342e"><tspan x="885" dy="0">Gamma = phi(d1) / (S * sigma * sqrt(T))</tspan></text>
  <text x="885" y="226.36" font-size="12" font-family="'Virgil', 'Segoe UI', Helvetica, Arial, sans-serif" font-weight="normal" text-anchor="middle" fill="#4e342e"><tspan x="885" dy="0">Theta = -(S*phi(d1)*sigma)/(2*sqrt(T))</tspan><tspan x="885" dy="15">  - r*K*exp(-rT)*N(d2)</tspan></text>
  <text x="885" y="283.86" font-size="12" font-family="'Virgil', 'Segoe UI', Helvetica, Arial, sans-serif" font-weight="normal" text-anchor="middle" fill="#4e342e"><tspan x="885" dy="0">Vega = S * phi(d1) * sqrt(T)</tspan></text>
  <text x="885" y="328.86" font-size="12" font-family="'Virgil', 'Segoe UI', Helvetica, Arial, sans-serif" font-weight="normal" text-anchor="middle" fill="#4e342e"><tspan x="885" dy="0">Rho = K * T * exp(-rT) * N(d2)</tspan></text>
  <text x="555" y="407.325" font-size="15" font-family="'Virgil', 'Segoe UI', Helvetica, Arial, sans-serif" font-weight="normal" text-anchor="middle" fill="#6a1b9a"><tspan x="555" dy="0">4. Computation Flow</tspan></text>
  <text x="95" y="461.86" font-size="12" font-family="'Virgil', 'Segoe UI', Helvetica, Arial, sans-serif" font-weight="normal" text-anchor="middle" fill="#311b92"><tspan x="95" dy="0">Tick arrives</tspan></text>
  <text x="237" y="461.86" font-size="12" font-family="'Virgil', 'Segoe UI', Helvetica, Arial, sans-serif" font-weight="normal" text-anchor="middle" fill="#311b92"><tspan x="237" dy="0">Check cache</tspan></text>
  <text x="379" y="461.86" font-size="12" font-family="'Virgil', 'Segoe UI', Helvetica, Arial, sans-serif" font-weight="normal" text-anchor="middle" fill="#311b92"><tspan x="379" dy="0">Compute IV</tspan></text>
  <text x="521" y="454.36" font-size="12" font-family="'Virgil', 'Segoe UI', Helvetica, Arial, sans-serif" font-weight="normal" text-anchor="middle" fill="#311b92"><tspan x="521" dy="0">Compute all</tspan><tspan x="521" dy="15">5 Greeks</tspan></text>
  <text x="663" y="454.36" font-size="12" font-family="'Virgil', 'Segoe UI', Helvetica, Arial, sans-serif" font-weight="normal" text-anchor="middle" fill="#311b92"><tspan x="663" dy="0">Update</tspan><tspan x="663" dy="15">Redis</tspan></text>
  <text x="805" y="454.36" font-size="12" font-family="'Virgil', 'Segoe UI', Helvetica, Arial, sans-serif" font-weight="normal" text-anchor="middle" fill="#311b92"><tspan x="805" dy="0">Publish</tspan><tspan x="805" dy="15">Kafka</tspan></text>
  <text x="947" y="454.36" font-size="12" font-family="'Virgil', 'Segoe UI', Helvetica, Arial, sans-serif" font-weight="normal" text-anchor="middle" fill="#311b92"><tspan x="947" dy="0">Write</tspan><tspan x="947" dy="15">QuestDB</tspan></text>
  <text x="555" y="547.325" font-size="15" font-family="'Virgil', 'Segoe UI', Helvetica, Arial, sans-serif" font-weight="normal" text-anchor="middle" fill="#e65100"><tspan x="555" dy="0">5. Performance Targets</tspan></text>
  <text x="157.5" y="603.42" font-size="14" font-family="'Virgil', 'Segoe UI', Helvetica, Arial, sans-serif" font-weight="normal" text-anchor="middle" fill="#e65100"><tspan x="157.5" dy="0">Latency</tspan><tspan x="157.5" dy="17.5">&lt;2ms per option tick</tspan></text>
  <text x="417.5" y="603.42" font-size="14" font-family="'Virgil', 'Segoe UI', Helvetica, Arial, sans-serif" font-weight="normal" text-anchor="middle" fill="#e65100"><tspan x="417.5" dy="0">Throughput</tspan><tspan x="417.5" dy="17.5">50,000 options/sec</tspan></text>
  <text x="677.5" y="603.42" font-size="14" font-family="'Virgil', 'Segoe UI', Helvetica, Arial, sans-serif" font-weight="normal" text-anchor="middle" fill="#e65100"><tspan x="677.5" dy="0">Cache hit rate</tspan><tspan x="677.5" dy="17.5">&gt;95%</tspan></text>
  <text x="937.5" y="603.42" font-size="14" font-family="'Virgil', 'Segoe UI', Helvetica, Arial, sans-serif" font-weight="normal" text-anchor="middle" fill="#e65100"><tspan x="937.5" dy="0">IV convergence</tspan><tspan x="937.5" dy="17.5">99.9%</tspan></text>
</svg>
